<?xml version="1.0" encoding="UTF-8"?>
<svg version="1.1" xmlns="http://www.w3.org/2000/svg" width="234" height="234">
<path d="M0 0 C1.28609665 -0.00511093 2.5721933 -0.01022186 3.89726257 -0.01548767 C7.39333698 -0.02876266 10.88930253 -0.02946922 14.3853972 -0.02692437 C17.31981083 -0.0258466 20.25420315 -0.03075855 23.18861216 -0.03552979 C30.12054967 -0.04658564 37.05243297 -0.04708485 43.984375 -0.04101562 C51.09906956 -0.03498146 58.21356607 -0.04728167 65.32822686 -0.06858569 C71.46960598 -0.08628874 77.61092255 -0.09218936 83.75232619 -0.08894795 C87.40572264 -0.08714845 91.05897786 -0.08963593 94.71235085 -0.10366249 C98.7940386 -0.11875012 102.87533182 -0.10919524 106.95703125 -0.09765625 C108.73510666 -0.10912186 108.73510666 -0.10912186 110.54910278 -0.12081909 C128.28208594 -0.01082641 142.26580114 4.81391406 155.32104492 16.78637695 C167.85556534 29.9509394 169.82527535 47.71569355 169.81787109 64.98217773 C169.82122971 66.12007248 169.82458832 67.25796722 169.82804871 68.43034363 C169.83750654 72.17273059 169.83949937 75.91507255 169.84057617 79.6574707 C169.84379286 82.27668272 169.84715724 84.89589456 169.85066223 87.5151062 C169.85704079 93.00071503 169.85854651 98.4863118 169.85791016 103.97192383 C169.85731085 110.27535822 169.86783951 116.57870663 169.88365382 122.8821193 C169.89841022 128.98551658 169.90189534 135.08887327 169.90130043 141.19228745 C169.90247331 143.77002182 169.90685582 146.34775697 169.9146328 148.92547989 C170.03735935 193.81315613 170.03735935 193.81315613 153.57495117 211.5324707 C140.25899035 224.24425907 124.36811013 226.41930693 106.77758789 226.43579102 C105.50168289 226.44075592 104.22577789 226.44572083 102.91120911 226.45083618 C99.42944937 226.46387546 95.94770885 226.47038864 92.46592855 226.47484684 C90.28345711 226.47779176 88.10099074 226.48189917 85.91852188 226.48635101 C79.06918995 226.50000459 72.21986983 226.50968128 65.37052524 226.5135529 C57.50289925 226.51802638 49.63544762 226.53555018 41.7678746 226.5645535 C35.66053513 226.58627492 29.55324433 226.59626275 23.4458667 226.59759402 C19.81029725 226.59863474 16.17489214 226.60438394 12.53936386 226.62241364 C8.4741356 226.64218436 4.40926547 226.63756403 0.34399414 226.63110352 C-0.83675186 226.6403183 -2.01749786 226.64953308 -3.23402405 226.6590271 C-20.32373956 226.57455952 -34.85664082 222.22054668 -47.32739258 210.2746582 C-58.81915399 197.01665331 -61.63143311 181.45761892 -61.61791992 164.43798828 C-61.62463715 163.20387207 -61.63135437 161.96975586 -61.63827515 160.69824219 C-61.65391041 157.3445442 -61.66062384 153.99109406 -61.66190672 150.63737702 C-61.66333808 148.53242284 -61.66762613 146.42749387 -61.67290115 144.32254601 C-61.69135085 136.95134229 -61.69957832 129.58021042 -61.69799805 122.20898438 C-61.69679865 115.38283736 -61.71787426 108.55700752 -61.74948537 101.73094064 C-61.77580505 95.83326283 -61.7863588 89.9356876 -61.78508723 84.03795165 C-61.78458209 80.53198558 -61.79001224 77.02630181 -61.81144333 73.52039528 C-61.93709139 51.41050537 -61.49822794 32.28564084 -45.88989258 15.0246582 C-41.75343835 11.11520451 -37.41819359 8.35571396 -32.38989258 5.7746582 C-31.75833252 5.44820313 -31.12677246 5.12174805 -30.47607422 4.78540039 C-20.83141333 0.19351976 -10.49990455 -0.02183264 0 0 Z " fill="#020C24" transform="translate(63.327392578125,1.725341796875)"/>
<path d="M0 0 C0.47367729 4.66659853 -1.17381119 7.7843662 -3.375 11.75 C-7.85882954 19.97958015 -9.38971193 27.71552142 -9.375 37.0625 C-9.37701416 37.8767041 -9.37902832 38.6909082 -9.38110352 39.52978516 C-9.26469717 46.62024016 -7.83836136 52.92066006 -5.77734375 59.6796875 C-4.57378664 64.82050932 -4.57378664 64.82050932 -6 68 C-8.24489154 69.65021828 -10.24728793 70.9114258 -12.6875 72.1875 C-13.30044922 72.52974609 -13.91339844 72.87199219 -14.54492188 73.22460938 C-18.26146546 75.254323 -21.92783741 76.78022779 -26 78 C-26.18175781 76.82630859 -26.18175781 76.82630859 -26.3671875 75.62890625 C-26.61855469 74.11103516 -26.61855469 74.11103516 -26.875 72.5625 C-27.03742188 71.55316406 -27.19984375 70.54382813 -27.3671875 69.50390625 C-27.57601562 68.67761719 -27.78484375 67.85132813 -28 67 C-28.99 66.505 -28.99 66.505 -30 66 C-30 70.62 -30 75.24 -30 80 C-30.99 80.33 -31.98 80.66 -33 81 C-33.33 76.71 -33.66 72.42 -34 68 C-34.99 68.495 -34.99 68.495 -36 69 C-36.46954261 72.04581269 -36.46954261 72.04581269 -36.625 75.5625 C-36.69976562 76.76003906 -36.77453125 77.95757812 -36.8515625 79.19140625 C-36.90054688 80.11824219 -36.94953125 81.04507813 -37 82 C-37.99 82 -38.98 82 -40 82 C-40.495 76.06 -40.495 76.06 -41 70 C-41.99 70 -42.98 70 -44 70 C-44 74.62 -44 79.24 -44 84 C-52.73108606 86.67278145 -60.8943027 87.13456696 -70 87 C-70.31638798 79.59960796 -69.20198848 73.11337901 -67.4375 65.9375 C-67.03422485 64.28584839 -67.03422485 64.28584839 -66.62280273 62.60083008 C-64.31563726 53.54127632 -61.28380789 45.29458188 -57 37 C-56.44441406 35.91589844 -55.88882813 34.83179688 -55.31640625 33.71484375 C-47.12775891 18.75590601 -34.12794822 6.70931607 -17.76171875 1.25390625 C-11.8755526 -0.26206905 -6.04392793 -0.20334711 0 0 Z " fill="#27D4F1" transform="translate(149,75)"/>
<path d="M0 0 C3.60136294 0.55649367 6.07786245 1.42808526 9.10009766 3.45263672 C9.87084625 3.96341766 10.64159485 4.47419861 11.43569946 5.00045776 C12.25355927 5.55460358 13.07141907 6.10874939 13.9140625 6.6796875 C14.76551849 7.2482547 15.61697449 7.8168219 16.49423218 8.40261841 C18.2903702 9.60429238 20.08390704 10.80986221 21.875 12.01904297 C24.61652036 13.86927715 27.36604961 15.70707355 30.1171875 17.54296875 C31.8624632 18.71281987 33.607271 19.8833694 35.3515625 21.0546875 C36.17347076 21.60478485 36.99537903 22.1548822 37.8421936 22.72164917 C38.60663788 23.23873444 39.37108215 23.7558197 40.15869141 24.28857422 C41.16532333 24.96688797 41.16532333 24.96688797 42.19229126 25.65890503 C44.00908046 27.00673657 45.54863334 28.26201415 47 30 C47.51932061 34.00618753 47.58044311 36.15054905 45.27319336 39.52709961 C43.02235493 41.97568113 41.03284786 43.49047219 38.19140625 45.19140625 C33.61981194 47.99516542 29.11883878 50.87325093 24.65234375 53.83984375 C23.37581548 54.68319165 22.09912152 55.52628884 20.82226562 56.36914062 C18.85896258 57.66618568 16.89665248 58.9646403 14.93676758 60.2668457 C13.01134289 61.54534282 11.08222079 62.81808088 9.15234375 64.08984375 C8.56283432 64.48348618 7.97332489 64.8771286 7.36595154 65.28269958 C3.22738105 68 3.22738105 68 1 68 C0.33172362 62.81579537 0.0982664 58.1731033 1 53 C3.96996808 49.18146961 7.79481692 47.28990482 12 45 C14.16265216 43.68459863 16.30571776 42.34090724 18.44726562 40.99145508 C19.88385977 40.09004057 21.32781405 39.20023716 22.77929688 38.32299805 C26.49019815 36.26578211 26.49019815 36.26578211 29 33 C27.93676514 32.61714844 27.93676514 32.61714844 26.85205078 32.2265625 C23.74963924 30.89232901 21.16710688 29.26197369 18.3671875 27.375 C17.31402344 26.66859375 16.26085937 25.9621875 15.17578125 25.234375 C14.08652344 24.49703125 12.99726563 23.7596875 11.875 23 C10.76721485 22.25478039 9.65914446 21.5099846 8.55078125 20.765625 C6.52056785 19.40052445 4.49162315 18.03353382 2.46435547 16.6640625 C0.6468761 15.43680479 -1.17528644 14.21647571 -3 13 C-2.52060632 8.28596212 -2.03165952 4.33420699 0 0 Z " fill="#2AD3EF" transform="translate(157,88)"/>
<path d="M0 0 C0.63170223 5.31523188 1.26746943 10.73598036 0 16 C-2.96563648 19.57878495 -6.86687003 21.00562942 -11 23 C-14.11142942 24.90543827 -17.14619091 26.92258102 -20.1875 28.9375 C-21.67992898 29.90658326 -23.17333651 30.87416208 -24.66796875 31.83984375 C-26.31732422 32.90912109 -26.31732422 32.90912109 -28 34 C-26.7174268 37.8477196 -25.25367373 38.41158565 -21.87109375 40.57421875 C-20.83662109 41.24130859 -19.80214844 41.90839844 -18.73632812 42.59570312 C-17.64771484 43.28599609 -16.55910156 43.97628906 -15.4375 44.6875 C-14.34501953 45.38939453 -13.25253906 46.09128906 -12.12695312 46.81445312 C-9.42261903 48.55042305 -6.71357542 50.27852521 -4 52 C-4.30852185 53.958964 -4.6219418 55.91715713 -4.9375 57.875 C-5.11152344 58.96554688 -5.28554687 60.05609375 -5.46484375 61.1796875 C-6 64 -6 64 -7 66 C-11.4759886 64.45421267 -15.18398587 62.03016385 -19.0625 59.375 C-20.39834604 58.47121897 -21.73428476 57.56757491 -23.0703125 56.6640625 C-23.73192383 56.21450195 -24.39353516 55.76494141 -25.07519531 55.30175781 C-26.83172296 54.11380685 -28.59615955 52.93962067 -30.3671875 51.7734375 C-47.38624411 40.55731623 -47.38624411 40.55731623 -48.75 34.875 C-47.84874118 30.21849612 -47.07609189 29.93761944 -43.30859375 27.33203125 C-41.8093335 26.28692383 -41.8093335 26.28692383 -40.27978516 25.22070312 C-39.19745605 24.48787109 -38.11512695 23.75503906 -37 23 C-36.45664001 22.62987793 -35.91328003 22.25975586 -35.35345459 21.87841797 C-31.94205183 19.55625165 -28.51329423 17.26129281 -25.07397461 14.98071289 C-23.30207142 13.80558375 -21.53270848 12.62670464 -19.76367188 11.44726562 C-2.57010172 0 -2.57010172 0 0 0 Z " fill="#28D3F0" transform="translate(79,87)"/>
<path d="M0 0 C1.98 0 3.96 0 6 0 C6.33 1.32 6.66 2.64 7 4 C9.76264289 4.59732819 12.16032769 5 15 5 C15.99 5.33 16.98 5.66 18 6 C17.67 5.01 17.34 4.02 17 3 C18.78460763 0.74575878 19.59219106 0.05097612 22.5 -0.3125 C25 0 25 0 28 2 C27.69147815 3.958964 27.3780582 5.91715713 27.0625 7.875 C26.80146484 9.51082031 26.80146484 9.51082031 26.53515625 11.1796875 C26 14 26 14 25 16 C20.32954556 14.40126752 16.54968344 11.87557707 12.5 9.125 C11.84902344 8.69058594 11.19804688 8.25617188 10.52734375 7.80859375 C6.88154658 5.35596657 3.38987916 2.80316931 0 0 Z " fill="#26D4EF" transform="translate(47,137)"/>
<path d="M0 0 C0 3.33333333 0 6.66666667 0 10 C0.66 10 1.32 10 2 10 C1.34 11.65 0.68 13.3 0 15 C-1.98 15 -3.96 15 -6 15 C-6 14.34 -6 13.68 -6 13 C-8.31 13 -10.62 13 -13 13 C-12.01 9.04 -11.02 5.08 -10 1 C-6.33418546 0.26683709 -3.63300168 -0.10380005 0 0 Z " fill="#37D3ED" transform="translate(117,112)"/>
<path d="M0 0 C0.33 0.99 0.66 1.98 1 3 C-0.32 3.33 -1.64 3.66 -3 4 C-2.6596875 4.804375 -2.6596875 4.804375 -2.3125 5.625 C-1.86041855 9.06081901 -3.32821985 11.05766694 -5 14 C-3.35 14.33 -1.7 14.66 0 15 C-1.16369126 18.49107379 -1.88973538 18.85222763 -4.9375 20.6875 C-5.64777344 21.12449219 -6.35804688 21.56148437 -7.08984375 22.01171875 C-9 23 -9 23 -11 23 C-11.66877904 17.81189596 -11.97495439 13.16673689 -11 8 C-7.81366602 4.38678874 -4.27387003 2.17162552 0 0 Z " fill="#2ACEEA" transform="translate(169,133)"/>
<path d="M0 0 C5.18177917 0.47290023 8.66515852 3.17722033 12.8125 6.0625 C13.50537109 6.53494141 14.19824219 7.00738281 14.91210938 7.49414062 C16.6130648 8.6554826 18.30722395 9.8267678 20 11 C19.67 11.99 19.34 12.98 19 14 C18.01 14 17.02 14 16 14 C16 14.99 16 15.98 16 17 C15.34 17 14.68 17 14 17 C14 17.66 14 18.32 14 19 C13.34 19 12.68 19 12 19 C12 19.66 12 20.32 12 21 C12.928125 21.268125 13.85625 21.53625 14.8125 21.8125 C17.82445764 22.93460187 18.96347496 23.6579962 21 26 C21.66 26.33 22.32 26.66 23 27 C23 27.66 23 28.32 23 29 C17.96617902 27.3518456 13.9739509 24.39351949 9.6875 21.375 C8.94693359 20.859375 8.20636719 20.34375 7.44335938 19.8125 C5.62577303 18.54605274 3.81149162 17.27514241 2 16 C3.32 15.34 4.64 14.68 6 14 C6 14.99 6 15.98 6 17 C8.31 17.33 10.62 17.66 13 18 C13 17.34 13 16.68 13 16 C12.34 16 11.68 16 11 16 C11 14.68 11 13.36 11 12 C11.99 12 12.98 12 14 12 C13.32664981 8.94622345 13.32664981 8.94622345 11.1875 7.8125 C8.76396971 6.76787565 8.76396971 6.76787565 5 7 C4.67 5.68 4.34 4.36 4 3 C2.68 2.67 1.36 2.34 0 2 C0 1.34 0 0.68 0 0 Z " fill="#2DCAE1" transform="translate(157,88)"/>
<path d="M0 0 C0 5.28 0 10.56 0 16 C-0.99 16.33 -1.98 16.66 -3 17 C-3.33 15.02 -3.66 13.04 -4 11 C-4.99 11 -5.98 11 -7 11 C-7.33 10.34 -7.66 9.68 -8 9 C-9.98 9.33 -11.96 9.66 -14 10 C-14 10.66 -14 11.32 -14 12 C-15.98 12.33 -17.96 12.66 -20 13 C-16.6811607 9.36428659 -12.99935849 6.86067641 -8.875 4.25 C-8.24207031 3.83878906 -7.60914062 3.42757812 -6.95703125 3.00390625 C-2.25656665 0 -2.25656665 0 0 0 Z " fill="#35D0E7" transform="translate(79,87)"/>
<path d="M0 0 C1.49341969 2.98683937 0.40648676 4.95160978 -0.4375 8.125 C-0.72496094 9.22070312 -1.01242188 10.31640625 -1.30859375 11.4453125 C-1.53675781 12.28835937 -1.76492187 13.13140625 -2 14 C-2.33 13.34 -2.66 12.68 -3 12 C-3.66 12 -4.32 12 -5 12 C-5 11.01 -5 10.02 -5 9 C-5.66 9 -6.32 9 -7 9 C-7.33 11.64 -7.66 14.28 -8 17 C-8.66 17 -9.32 17 -10 17 C-9.85904936 15.3745692 -9.71207913 13.74965949 -9.5625 12.125 C-9.48128906 11.22007812 -9.40007812 10.31515625 -9.31640625 9.3828125 C-9 7 -9 7 -8 5 C-8.99 4.67 -9.98 4.34 -11 4 C-8.13822943 2.56911472 -6.06624227 3.40008303 -3 4 C-2.67 3.01 -2.34 2.02 -2 1 C-1.34 0.67 -0.68 0.34 0 0 Z " fill="#032540" transform="translate(83,134)"/>
<path d="M0 0 C-0.48355011 6.40703902 -0.48355011 6.40703902 -2.6875 8.9375 C-5.59086906 10.27148038 -7.84130576 10.21536552 -11 10 C-10.43601004 6.49411644 -9.33036227 5.01017608 -6.625 2.75 C-6.01914063 2.22921875 -5.41328125 1.7084375 -4.7890625 1.171875 C-3 0 -3 0 0 0 Z " fill="#022C47" transform="translate(116,113)"/>
<path d="M0 0 C0.99 0.33 1.98 0.66 3 1 C4.47666292 4.49029418 4.07164685 8.27436386 4 12 C5.65 11.34 7.3 10.68 9 10 C8.67 10.99 8.34 11.98 8 13 C7.34 13 6.68 13 6 13 C5.67 13.66 5.34 14.32 5 15 C2.67843403 15.40729228 0.3431213 15.74438677 -2 16 C-1.67 15.34 -1.34 14.68 -1 14 C-0.76970044 11.62876754 -0.58880058 9.25258057 -0.4375 6.875 C-0.35371094 5.59367188 -0.26992187 4.31234375 -0.18359375 2.9921875 C-0.09271484 1.51105469 -0.09271484 1.51105469 0 0 Z " fill="#012942" transform="translate(119,141)"/>
<path d="M0 0 C0.33 0.99 0.66 1.98 1 3 C0.00390625 4.82421875 0.00390625 4.82421875 -1.4375 6.6875 C-1.91058594 7.31011719 -2.38367188 7.93273437 -2.87109375 8.57421875 C-3.24363281 9.04472656 -3.61617187 9.51523438 -4 10 C-3.34 10 -2.68 10 -2 10 C-2.33 10.99 -2.66 11.98 -3 13 C-4.32 13 -5.64 13 -7 13 C-7 14.98 -7 16.96 -7 19 C-7.9590625 19.3403125 -7.9590625 19.3403125 -8.9375 19.6875 C-11.27193661 20.85250896 -11.27193661 20.85250896 -11.75 23.625 C-11.8325 24.40875 -11.915 25.1925 -12 26 C-12.66 26 -13.32 26 -14 26 C-11.1097997 16.53210248 -6.00918609 7.83015157 0 0 Z " fill="#35C3DC" transform="translate(102,96)"/>
<path d="M0 0 C0.99 0 1.98 0 3 0 C3.96070434 2.88211302 4.10581883 4.69850044 4.0625 7.6875 C4.05347656 8.49574219 4.04445313 9.30398437 4.03515625 10.13671875 C4.02355469 10.75160156 4.01195313 11.36648437 4 12 C4.99 12.33 5.98 12.66 7 13 C4.23735711 13.59732819 1.83967231 14 -1 14 C-0.67 9.38 -0.34 4.76 0 0 Z " fill="#03394D" transform="translate(105,145)"/>
<path d="M0 0 C2.49361571 1.20381448 4.68143083 2.45428722 7 4 C7.33 4.99 7.66 5.98 8 7 C9.96952906 8.13843108 11.99322372 8.96086149 14.08984375 9.83984375 C16.39934441 11.24254661 17.01378258 12.5267113 18 15 C13.27156386 13.42686828 9.6566157 10.79358765 5.6875 7.875 C5.04232422 7.40707031 4.39714844 6.93914062 3.73242188 6.45703125 C2.15151106 5.3094071 0.57527699 4.15534523 -1 3 C-0.67 2.01 -0.34 1.02 0 0 Z " fill="#02273F" transform="translate(51,120)"/>
<path d="M0 0 C-3 2 -3 2 -6.0625 2.875 C-9.10883193 3.68752741 -9.10883193 3.68752741 -10.1875 6.0625 C-10.455625 6.701875 -10.72375 7.34125 -11 8 C-14.76624671 9.25541557 -16.37188934 8.37061958 -20 7 C-14.61704335 2.51420279 -7.1037932 -2.2833621 0 0 Z " fill="#2FCFE9" transform="translate(137,77)"/>
<path d="M0 0 C0.99 0.66 1.98 1.32 3 2 C0.54429825 3.33838733 -1.91429916 4.67086232 -4.375 6 C-5.42300781 6.57234375 -5.42300781 6.57234375 -6.4921875 7.15625 C-11.7734375 10 -11.7734375 10 -14 10 C-14.33 7.03 -14.66 4.06 -15 1 C-14.34 1 -13.68 1 -13 1 C-13 1.66 -13 2.32 -13 3 C-12.01 3.33 -11.02 3.66 -10 4 C-10.66 4 -11.32 4 -12 4 C-12 4.66 -12 5.32 -12 6 C-7.58477891 4.73025028 -7.58477891 4.73025028 -4 2 C-2.68 2 -1.36 2 0 2 C0 1.34 0 0.68 0 0 Z " fill="#2FC5DB" transform="translate(137,143)"/>
<path d="M0 0 C2.83788059 4.54060895 3 9.74897456 3 15 C2.54284064 16.57556706 2.03895471 18.13800522 1.5 19.6875 C1.2215625 20.49574219 0.943125 21.30398437 0.65625 22.13671875 C0.33140625 23.05904297 0.33140625 23.05904297 0 24 C-0.33 24 -0.66 24 -1 24 C-1.0270491 20.93744039 -1.04686298 17.8751214 -1.0625 14.8125 C-1.07087891 13.94818359 -1.07925781 13.08386719 -1.08789062 12.19335938 C-1.10396812 7.99713231 -1.07559038 4.09063114 0 0 Z " fill="#001732" transform="translate(140,98)"/>
<path d="M0 0 C0.33 0.66 0.66 1.32 1 2 C0.525625 2.45375 0.05125 2.9075 -0.4375 3.375 C-2.09027808 4.93258204 -2.09027808 4.93258204 -3 7 C-5.5625 7.625 -5.5625 7.625 -8 8 C-8.33 10.64 -8.66 13.28 -9 16 C-8.01 16 -7.02 16 -6 16 C-5.67 17.32 -5.34 18.64 -5 20 C-8.16115776 18.63016497 -8.9927092 18.0109362 -11 15 C-11.8125 11.8125 -11.8125 11.8125 -11 8 C-7.59996856 4.90807952 -3.89139441 2.4321215 0 0 Z " fill="#36C2D8" transform="translate(42,110)"/>
<path d="M0 0 C1.125 2.9375 1.125 2.9375 2 6 C2.33 6.66 2.66 7.32 3 8 C2.01 9.485 2.01 9.485 1 11 C0.34 10.34 -0.32 9.68 -1 9 C-1.99 9 -2.98 9 -4 9 C-3.34 6.36 -2.68 3.72 -2 1 C-6.62 1.33 -11.24 1.66 -16 2 C-15.67 1.34 -15.34 0.68 -15 0 C-12.3828125 -0.44921875 -12.3828125 -0.44921875 -9.125 -0.6875 C-8.05507812 -0.77386719 -6.98515625 -0.86023438 -5.8828125 -0.94921875 C-3 -1 -3 -1 0 0 Z " fill="#011735" transform="translate(151,74)"/>
<path d="M0 0 C0.66 0 1.32 0 2 0 C1.83628906 0.90878906 1.67257813 1.81757812 1.50390625 2.75390625 C0.73606421 8.12880056 0.8937851 13.52021545 0.9375 18.9375 C0.94201172 20.00291016 0.94652344 21.06832031 0.95117188 22.16601562 C0.96288213 24.77740291 0.97928276 27.38867124 1 30 C0.34 30.33 -0.32 30.66 -1 31 C-3.7109144 7.71518171 -3.7109144 7.71518171 0 0 Z " fill="#31ADC7" transform="translate(139,96)"/>
<path d="M0 0 C-1.39669612 3.42627018 -2.78919149 4.77412688 -6 6.5625 C-9.02275544 8.2572434 -9.99832634 8.9974895 -12 12 C-15.125 12.1875 -15.125 12.1875 -18 12 C-14.922555 8.69955174 -11.63121175 6.24183581 -7.875 3.75 C-6.82054687 3.04359375 -5.76609375 2.3371875 -4.6796875 1.609375 C-2 0 -2 0 0 0 Z " fill="#01223D" transform="translate(186,139)"/>
<path d="M0 0 C5.18177917 0.47290023 8.66515852 3.17722033 12.8125 6.0625 C13.50537109 6.53494141 14.19824219 7.00738281 14.91210938 7.49414062 C16.6130648 8.6554826 18.30722395 9.8267678 20 11 C18.1484375 11.6171875 18.1484375 11.6171875 16 12 C14.32476605 10.67744688 12.65893182 9.34294481 11 8 C7.81237891 7.20309162 7.81237891 7.20309162 5 7 C4.67 5.68 4.34 4.36 4 3 C2.68 2.67 1.36 2.34 0 2 C0 1.34 0 0.68 0 0 Z " fill="#39CDE4" transform="translate(157,88)"/>
<path d="M0 0 C0.33 0.66 0.66 1.32 1 2 C3.32156597 2.40729228 5.6568787 2.74438677 8 3 C8.33 4.65 8.66 6.3 9 8 C7.55903414 7.57405412 6.12231288 7.13373367 4.6875 6.6875 C3.88699219 6.44386719 3.08648437 6.20023438 2.26171875 5.94921875 C-0.09964573 4.95817977 -1.33879993 3.91925057 -3 2 C-2.01 1.34 -1.02 0.68 0 0 Z " fill="#0C132B" transform="translate(29,217)"/>
<path d="M0 0 C0 0.33 0 0.66 0 1 C-8.41518047 2.52016163 -16.4488728 3.27733386 -25 3 C-25 2.67 -25 2.34 -25 2 C-16.63994116 -0.38858824 -8.61264844 -0.190218 0 0 Z " fill="#2CAAC4" transform="translate(104,159)"/>
<path d="M0 0 C0.99 0.33 1.98 0.66 3 1 C0.36 5.95 -2.28 10.9 -5 16 C-5.33 16 -5.66 16 -6 16 C-6 13.69 -6 11.38 -6 9 C-5.34 9 -4.68 9 -4 9 C-4 8.01 -4 7.02 -4 6 C-3.34 6 -2.68 6 -2 6 C-1.855625 5.195625 -1.71125 4.39125 -1.5625 3.5625 C-1 1 -1 1 0 0 Z " fill="#011B36" transform="translate(95,102)"/>
<path d="M0 0 C0.33 0 0.66 0 1 0 C1.33 2.64 1.66 5.28 2 8 C2.66 7.67 3.32 7.34 4 7 C4 8.65 4 10.3 4 12 C4.66 12.33 5.32 12.66 6 13 C3.69 13 1.38 13 -1 13 C-1.07654536 8.48382401 -1.10228696 4.40914783 0 0 Z " fill="#3BC8E1" transform="translate(80,148)"/>
<path d="M0 0 C-0.66 1.98 -1.32 3.96 -2 6 C-4.31 6.33 -6.62 6.66 -9 7 C-9 7.66 -9 8.32 -9 9 C-10.98 9.33 -12.96 9.66 -15 10 C-11.63672231 6.19803392 -5.34781299 0 0 0 Z " fill="#36C6DF" transform="translate(74,90)"/>
<path d="M0 0 C0.33 0 0.66 0 1 0 C1 4.29 1 8.58 1 13 C-0.65 13 -2.3 13 -4 13 C-4.66 12.01 -5.32 11.02 -6 10 C-5.34 9.01 -4.68 8.02 -4 7 C-3.34 7 -2.68 7 -2 7 C-2 7.99 -2 8.98 -2 10 C-1.34 10 -0.68 10 0 10 C0 6.7 0 3.4 0 0 Z " fill="#39D2ED" transform="translate(104,146)"/>
<path d="M0 0 C0.33 0 0.66 0 1 0 C1.185625 1.051875 1.37125 2.10375 1.5625 3.1875 C2.8720195 7.95997108 5.90732121 9.49891852 10 12 C9.34 12.66 8.68 13.32 8 14 C8 13.34 8 12.68 8 12 C6.68 12.33 5.36 12.66 4 13 C-1.05908096 5.9452954 -1.05908096 5.9452954 -0.8125 2 C-0.544375 1.34 -0.27625 0.68 0 0 Z " fill="#02273F" transform="translate(30,120)"/>
<path d="M0 0 C0.66 0 1.32 0 2 0 C2.96070434 2.88211302 3.10581883 4.69850044 3.0625 7.6875 C3.05347656 8.49574219 3.04445313 9.30398437 3.03515625 10.13671875 C3.02355469 10.75160156 3.01195313 11.36648437 3 12 C2.67 12 2.34 12 2 12 C1.67 10.02 1.34 8.04 1 6 C0.67 8.64 0.34 11.28 0 14 C-0.33 14 -0.66 14 -1 14 C-1.02685938 11.85423363 -1.04633088 9.70837355 -1.0625 7.5625 C-1.07410156 6.36753906 -1.08570312 5.17257813 -1.09765625 3.94140625 C-1 1 -1 1 0 0 Z " fill="#06475E" transform="translate(113,143)"/>
<path d="M0 0 C1.98 0 3.96 0 6 0 C6.33 1.32 6.66 2.64 7 4 C7.763125 4.103125 8.52625 4.20625 9.3125 4.3125 C12.17059424 5.04364039 13.15742885 5.76951913 15 8 C14.67 8.66 14.34 9.32 14 10 C11.66390677 8.52504318 9.33109833 7.04531255 7 5.5625 C6.33226562 5.14162109 5.66453125 4.72074219 4.9765625 4.28710938 C3.30037435 3.21811183 1.64799163 2.11197395 0 1 C0 0.67 0 0.34 0 0 Z " fill="#31BBD0" transform="translate(47,137)"/>
<path d="M0 0 C2.73811563 4.10717344 4.25995769 7.96366479 3.625 12.9375 C3.41875 13.618125 3.2125 14.29875 3 15 C1 14 1 14 0.37890625 12.265625 C-0.04706889 9.71855716 -0.09646629 7.33143831 -0.0625 4.75 C-0.05347656 3.85796875 -0.04445312 2.9659375 -0.03515625 2.046875 C-0.02355469 1.37140625 -0.01195312 0.6959375 0 0 Z " fill="#30C3D9" transform="translate(140,128)"/>
<path d="M0 0 C1.98 0 3.96 0 6 0 C4.41727399 3.16545202 1.60316869 3.71120622 -1.5625 5.125 C-2.76003906 5.66382812 -3.95757812 6.20265625 -5.19140625 6.7578125 C-6.11824219 7.16773437 -7.04507813 7.57765625 -8 8 C-7.67 6.68 -7.34 5.36 -7 4 C-4.69 3.34 -2.38 2.68 0 2 C0 1.34 0 0.68 0 0 Z " fill="#023148" transform="translate(123,77)"/>
<path d="M0 0 C1.32 0.66 2.64 1.32 4 2 C3.67 2.99 3.34 3.98 3 5 C2.278125 4.979375 1.55625 4.95875 0.8125 4.9375 C-1.91925138 4.99820559 -4.34256091 5.39258535 -7 6 C-4.74259377 3.66475218 -2.7194239 1.81294927 0 0 Z " fill="#0F1323" transform="translate(28,9)"/>
<path d="M0 0 C0.99 0.66 1.98 1.32 3 2 C2.01 2.66 1.02 3.32 0 4 C-0.38411275 6.609621 -0.60293197 9.0058074 -0.6875 11.625 C-0.72166016 12.33140625 -0.75582031 13.0378125 -0.79101562 13.765625 C-0.87351308 15.50985688 -0.93843335 17.25490395 -1 19 C-1.33 19 -1.66 19 -2 19 C-2.06058594 18.16855469 -2.12117187 17.33710938 -2.18359375 16.48046875 C-2.26738281 15.39378906 -2.35117188 14.30710938 -2.4375 13.1875 C-2.51871094 12.10855469 -2.59992188 11.02960938 -2.68359375 9.91796875 C-2.90212461 6.94010095 -2.90212461 6.94010095 -4 4 C-2.68 2.68 -1.36 1.36 0 0 Z " fill="#011E3A" transform="translate(159,137)"/>
<path d="M0 0 C0.33 0 0.66 0 1 0 C1 4.29 1 8.58 1 13 C0.01 13.33 -0.98 13.66 -2 14 C-2.05437607 12.41705218 -2.09296271 10.83355744 -2.125 9.25 C-2.14820312 8.36828125 -2.17140625 7.4865625 -2.1953125 6.578125 C-1.99139502 3.8864142 -1.36551721 2.30095026 0 0 Z " fill="#3CCADE" transform="translate(118,142)"/>
<path d="M0 0 C0.33 0.99 0.66 1.98 1 3 C-0.32 3.33 -1.64 3.66 -3 4 C-3.33 5.32 -3.66 6.64 -4 8 C-5.98 8 -7.96 8 -10 8 C-6.97727468 4.74475735 -3.74281699 2.38179263 0 0 Z " fill="#2DC2D8" transform="translate(169,133)"/>
<path d="M0 0 C4.75 1.875 4.75 1.875 7 3 C6.7073985 6.51121797 6.1900372 7.80482666 3.6875 10.375 C1 12 1 12 -1.16796875 11.6015625 C-1.77253906 11.40304688 -2.37710938 11.20453125 -3 11 C-2.43410156 10.66226563 -1.86820313 10.32453125 -1.28515625 9.9765625 C-0.55167969 9.53054687 0.18179688 9.08453125 0.9375 8.625 C1.66839844 8.18414062 2.39929688 7.74328125 3.15234375 7.2890625 C5.13772272 6.1226016 5.13772272 6.1226016 6 4 C5.195625 3.71125 4.39125 3.4225 3.5625 3.125 C1 2 1 2 0 0 Z " fill="#38C6E2" transform="translate(180,117)"/>
<path d="M0 0 C1.32 0.33 2.64 0.66 4 1 C2.04532248 2.33898399 0.0866421 3.67129047 -1.875 5 C-2.96554688 5.7425 -4.05609375 6.485 -5.1796875 7.25 C-8 9 -8 9 -10 9 C-9.67 8.01 -9.34 7.02 -9 6 C-8.01 6 -7.02 6 -6 6 C-6 5.34 -6 4.68 -6 4 C-5.34 4 -4.68 4 -4 4 C-4 3.34 -4 2.68 -4 2 C-2.68 2 -1.36 2 0 2 C0 1.34 0 0.68 0 0 Z " fill="#012944" transform="translate(70,89)"/>
<path d="M0 0 C0.66 0 1.32 0 2 0 C1.67 2.31 1.34 4.62 1 7 C-2.37503669 5.8141763 -4.64722731 4.72426311 -7 2 C-5.02 2.66 -3.04 3.32 -1 4 C-0.67 2.68 -0.34 1.36 0 0 Z " fill="#33BED6" transform="translate(71,146)"/>
<path d="M0 0 C3.68754757 0.49831724 5.60490662 1.10067643 8 4 C4.90281114 4.99552499 3.09728725 4.89921243 0 4 C-0.99 4 -1.98 4 -3 4 C-2.01 2.68 -1.02 1.36 0 0 Z " fill="#021A31" transform="translate(44,137)"/>
<path d="M0 0 C0.66 0.33 1.32 0.66 2 1 C0.42982807 2.36940568 -1.15665391 3.72012895 -2.75 5.0625 C-3.63171875 5.81660156 -4.5134375 6.57070312 -5.421875 7.34765625 C-6.69804687 8.16556641 -6.69804687 8.16556641 -8 9 C-9.32 8.67 -10.64 8.34 -12 8 C-8.04 5.36 -4.08 2.72 0 0 Z " fill="#012741" transform="translate(198,130)"/>
<path d="M0 0 C0.66 0 1.32 0 2 0 C3 1 4 2 5 3 C5.99 3.33 6.98 3.66 8 4 C8 4.99 8 5.98 8 7 C5.6875 7.25 5.6875 7.25 3 7 C1.1875 5.1875 1.1875 5.1875 0 3 C0 2.01 0 1.02 0 0 Z " fill="#06061B" transform="translate(66,128)"/>
<path d="M0 0 C0.99 0.66 1.98 1.32 3 2 C2.01 3.485 2.01 3.485 1 5 C1 4.01 1 3.02 1 2 C0.34 2 -0.32 2 -1 2 C-0.938125 3.1446875 -0.938125 3.1446875 -0.875 4.3125 C-1 7 -1 7 -3 10 C-3.99 9.34 -4.98 8.68 -6 8 C-6 7.34 -6 6.68 -6 6 C-5.34 6 -4.68 6 -4 6 C-4 5.34 -4 4.68 -4 4 C-3.34 4 -2.68 4 -2 4 C-2 3.01 -2 2.02 -2 1 C-1.34 0.67 -0.68 0.34 0 0 Z " fill="#22D8F2" transform="translate(175,101)"/>
<path d="M0 0 C0.66 0.33 1.32 0.66 2 1 C0.02 3.97 0.02 3.97 -2 7 C-3.32 6.67 -4.64 6.34 -6 6 C-4.98545548 3.4636387 -4.3146444 2.20648539 -2 0.6875 C-1.34 0.460625 -0.68 0.23375 0 0 Z " fill="#0C1121" transform="translate(224,200)"/>
<path d="M0 0 C0.66 0.33 1.32 0.66 2 1 C1.67 2.98 1.34 4.96 1 7 C-3.75 6.25 -3.75 6.25 -6 4 C-4.02 2.68 -2.04 1.36 0 0 Z " fill="#021D3B" transform="translate(166,151)"/>
<path d="M0 0 C1.32 0 2.64 0 4 0 C3.3125 2.4375 3.3125 2.4375 2 5 C-0.625 5.8125 -0.625 5.8125 -3 6 C-2.42655063 3.13275314 -2.1385485 2.1385485 0 0 Z " fill="#011026" transform="translate(109,116)"/>
<path d="M0 0 C1.32 0.66 2.64 1.32 4 2 C2.71186658 2.83878455 1.41936744 3.67086783 0.125 4.5 C-0.59429687 4.9640625 -1.31359375 5.428125 -2.0546875 5.90625 C-4 7 -4 7 -6 7 C-6 5.02 -6 3.04 -6 1 C-5.67 1.99 -5.34 2.98 -5 4 C-4.34 4 -3.68 4 -3 4 C-3 3.34 -3 2.68 -3 2 C-2.01 2 -1.02 2 0 2 C0 1.34 0 0.68 0 0 Z " fill="#29C6DD" transform="translate(57,113)"/>
<path d="M0 0 C0.33 0 0.66 0 1 0 C1 2.64 1 5.28 1 8 C1.66 8.33 2.32 8.66 3 9 C1.02 9.99 1.02 9.99 -1 11 C-1.33 10.67 -1.66 10.34 -2 10 C-1.29411765 2.58823529 -1.29411765 2.58823529 0 0 Z " fill="#32C1D9" transform="translate(156,91)"/>
<path d="M0 0 C2.475 0.99 2.475 0.99 5 2 C5 2.66 5 3.32 5 4 C4.01 4.495 4.01 4.495 3 5 C2.67 5.99 2.34 6.98 2 8 C1.34 8 0.68 8 0 8 C-0.79953138 4.71303767 -1.09658936 3.28976808 0 0 Z " fill="#21D6F3" transform="translate(68,142)"/>
<path d="M0 0 C5.52628901 1.19194469 8.17819158 2.5991297 12 7 C8.38862487 7 7.25267809 6.07469918 4.3125 4.0625 C3.50425781 3.51722656 2.69601563 2.97195312 1.86328125 2.41015625 C1.24839844 1.94480469 0.63351563 1.47945312 0 1 C0 0.67 0 0.34 0 0 Z " fill="#02344C" transform="translate(57,127)"/>
<path d="M0 0 C0 1.65 0 3.3 0 5 C-0.33 3.68 -0.66 2.36 -1 1 C-4.14191424 2.53604696 -7.08596738 4.05731159 -10 6 C-10 4.35 -10 2.7 -10 1 C-6.59437148 0.22157062 -3.49234244 -0.09978121 0 0 Z " fill="#35BAD3" transform="translate(117,112)"/>
<path d="M0 0 C0.66 0.33 1.32 0.66 2 1 C2 1.66 2 2.32 2 3 C0.9275 3.4125 -0.145 3.825 -1.25 4.25 C-4.52265074 5.63739149 -6.65517162 7.27999908 -9 10 C-9.66 9.67 -10.32 9.34 -11 9 C-9.54405245 7.68485396 -8.08516421 6.37296283 -6.625 5.0625 C-5.81289062 4.33160156 -5.00078125 3.60070312 -4.1640625 2.84765625 C-2 1 -2 1 0 0 Z " fill="#31C7DC" transform="translate(116,84)"/>
<path d="M0 0 C-0.33 1.65 -0.66 3.3 -1 5 C-1.33 3.68 -1.66 2.36 -2 1 C-6.62 1.33 -11.24 1.66 -16 2 C-15.67 1.34 -15.34 0.68 -15 0 C-12.3828125 -0.44921875 -12.3828125 -0.44921875 -9.125 -0.6875 C-8.05507812 -0.77386719 -6.98515625 -0.86023438 -5.8828125 -0.94921875 C-3 -1 -3 -1 0 0 Z " fill="#013149" transform="translate(151,74)"/>
<path d="M0 0 C3 2 3 2 3.6875 4.625 C3.790625 5.40875 3.89375 6.1925 4 7 C3.01 7.33 2.02 7.66 1 8 C-2 3.25 -2 3.25 -2 1 C-1.34 0.67 -0.68 0.34 0 0 Z " fill="#0E152B" transform="translate(11,199)"/>
<path d="M0 0 C2.475 0.99 2.475 0.99 5 2 C4.67 3.98 4.34 5.96 4 8 C3.01 7.67 2.02 7.34 1 7 C0.67 4.69 0.34 2.38 0 0 Z " fill="#2FC5E2" transform="translate(70,137)"/>
<path d="M0 0 C-3.68734758 2.45823172 -6.69699971 3.01242616 -11 4 C-11.33 3.34 -11.66 2.68 -12 2 C-10.75579353 1.4654744 -9.50429064 0.94791389 -8.25 0.4375 C-7.55390625 0.14746094 -6.8578125 -0.14257812 -6.140625 -0.44140625 C-3.69987216 -1.07831803 -2.3596345 -0.80248831 0 0 Z " fill="#2DBED2" transform="translate(137,77)"/>
<path d="M0 0 C3.79303725 1.00193437 6.71536341 1.81024227 10 4 C9.67 4.66 9.34 5.32 9 6 C5.06326356 4.68775452 2.77280706 3.08089673 0 0 Z " fill="#022E49" transform="translate(186,105)"/>
<path d="M0 0 C0 0.99 0 1.98 0 3 C-1.98953324 4.98953324 -3.40434522 5.97746933 -6 7 C-6.99 6.67 -7.98 6.34 -9 6 C-6.03 4.02 -3.06 2.04 0 0 Z " fill="#012B46" transform="translate(73,106)"/>
<path d="M0 0 C0.66 0.66 1.32 1.32 2 2 C1.875 4 1.875 4 1 6 C-1.0625 7.25 -1.0625 7.25 -3 8 C-2.25 2.25 -2.25 2.25 0 0 Z " fill="#011D2F" transform="translate(111,82)"/>
<path d="M0 0 C0.99 0.33 1.98 0.66 3 1 C3.33 1.99 3.66 2.98 4 4 C3.01 4.495 3.01 4.495 2 5 C0.86649466 7.01669827 0.86649466 7.01669827 0 9 C-0.84454356 5.62182575 -1.10844919 3.32534757 0 0 Z " fill="#111429" transform="translate(4,40)"/>
<path d="M0 0 C1.76462683 3.08809695 2 4.23312136 2 8 C1.34 8 0.68 8 0 8 C0 9.65 0 11.3 0 13 C-0.33 13 -0.66 13 -1 13 C-1.07654536 8.48382401 -1.10228696 4.40914783 0 0 Z " fill="#022844" transform="translate(140,98)"/>
<path d="M0 0 C0.66 0 1.32 0 2 0 C1.34 3.63 0.68 7.26 0 11 C-2 8 -2 8 -1.6875 6.0625 C-1.460625 5.381875 -1.23375 4.70125 -1 4 C-0.814375 3.2575 -0.62875 2.515 -0.4375 1.75 C-0.293125 1.1725 -0.14875 0.595 0 0 Z " fill="#33C2DB" transform="translate(139,96)"/>
<path d="M0 0 C0.33 0 0.66 0 1 0 C1 2.64 1 5.28 1 8 C0.01 8 -0.98 8 -2 8 C-2 6.35 -2 4.7 -2 3 C-1.34 3 -0.68 3 0 3 C0 2.01 0 1.02 0 0 Z " fill="#40D5EB" transform="translate(111,149)"/>
<path d="M0 0 C0.99 0.33 1.98 0.66 3 1 C1.68 3.31 0.36 5.62 -1 8 C-1.93065133 5.39417629 -2.14917407 4.35801776 -1.0625 1.75 C-0.711875 1.1725 -0.36125 0.595 0 0 Z " fill="#012642" transform="translate(95,102)"/>
<path d="M0 0 C0.33 0 0.66 0 1 0 C1.33 2.31 1.66 4.62 2 7 C0.68 7.33 -0.64 7.66 -2 8 C-1.47731534 5.23723823 -0.89130413 2.6739124 0 0 Z " fill="#022540" transform="translate(143,89)"/>
<path d="M0 0 C2.31 0.33 4.62 0.66 7 1 C7.33 2.32 7.66 3.64 8 5 C5.04590299 3.62845496 2.55991624 2.01136276 0 0 Z " fill="#02314C" transform="translate(160,88)"/>
</svg>
